<svg width="24" height="24" viewBox="0 0 24 24" fill="none" xmlns="http://www.w3.org/2000/svg">
<path d="M3.77852 18.7636L3.18292 18.5531H3.18292L3.77852 18.7636ZM5.06823 20.0533L5.27869 20.6489H5.27869L5.06823 20.0533ZM7.19333 19.3024L6.98287 18.7068L7.19333 19.3024ZM7.9221 19.372L7.61583 19.9245L7.9221 19.372ZM4.50462 15.8467L3.94284 16.1355L4.50462 15.8467ZM4.56044 16.5508L3.96484 16.3403L4.56044 16.5508ZM4.20884 12.0005C4.20884 7.69769 7.69695 4.20958 11.9998 4.20958V2.94619C6.9992 2.94619 2.94545 6.99994 2.94545 12.0005H4.20884ZM5.0664 15.5578C4.51842 14.4921 4.20884 13.2834 4.20884 12.0005H2.94545C2.94545 13.489 3.30512 14.8953 3.94284 16.1355L5.0664 15.5578ZM4.37413 18.9741L5.15605 16.7612L3.96484 16.3403L3.18292 18.5531L4.37413 18.9741ZM4.85777 19.4577C4.55735 19.5639 4.26797 19.2745 4.37413 18.9741L3.18292 18.5531C2.72292 19.8549 3.9769 21.1089 5.27869 20.6489L4.85777 19.4577ZM6.98287 18.7068L4.85777 19.4577L5.27869 20.6489L7.40379 19.898L6.98287 18.7068ZM11.9998 19.7914C10.6303 19.7914 9.34523 19.4386 8.22837 18.8195L7.61583 19.9245C8.91534 20.6449 10.4106 21.0548 11.9998 21.0548V19.7914ZM19.7907 12.0005C19.7907 16.3033 16.3026 19.7914 11.9998 19.7914V21.0548C17.0003 21.0548 21.0541 17.001 21.0541 12.0005H19.7907ZM11.9998 4.20958C16.3026 4.20958 19.7907 7.69769 19.7907 12.0005H21.0541C21.0541 6.99994 17.0003 2.94619 11.9998 2.94619V4.20958ZM7.40379 19.898C7.45895 19.8785 7.53632 19.8804 7.61583 19.9245L8.22837 18.8195C7.86149 18.6161 7.40894 18.5562 6.98287 18.7068L7.40379 19.898ZM3.94284 16.1355C3.98273 16.2131 3.9836 16.2872 3.96484 16.3403L5.15605 16.7612C5.30081 16.3515 5.25095 15.9167 5.0664 15.5578L3.94284 16.1355Z" fill="white"/>
<circle cx="7.83017" cy="12.0422" r="1.05283" fill="white"/>
<circle cx="12.0411" cy="12.0421" r="1.05283" fill="white"/>
<circle cx="16.253" cy="12.0421" r="1.05283" fill="white"/>
</svg>
